<?xml version="1.0" encoding="UTF-8" standalone="no"?>
<!-- Created with Inkscape (http://www.inkscape.org/) -->

<svg
   xmlns:dc="http://purl.org/dc/elements/1.1/"
   xmlns:cc="http://creativecommons.org/ns#"
   xmlns:rdf="http://www.w3.org/1999/02/22-rdf-syntax-ns#"
   xmlns:svg="http://www.w3.org/2000/svg"
   xmlns="http://www.w3.org/2000/svg"
   xmlns:sodipodi="http://sodipodi.sourceforge.net/DTD/sodipodi-0.dtd"
   xmlns:inkscape="http://www.inkscape.org/namespaces/inkscape"
   version="1.1"
   width="20"
   height="20"
   viewBox="0 0 626.24597 626.09998"
   id="svg3705"
   sodipodi:docname="nuget.svg"
   inkscape:version="0.92.1 r15371">
  <defs
     id="defs3709" />
  <sodipodi:namedview
     pagecolor="#ffffff"
     bordercolor="#666666"
     borderopacity="1"
     objecttolerance="10"
     gridtolerance="10"
     guidetolerance="10"
     inkscape:pageopacity="0"
     inkscape:pageshadow="2"
     inkscape:window-width="3000"
     inkscape:window-height="1875"
     id="namedview3707"
     showgrid="false"
     inkscape:zoom="55.437172"
     inkscape:cx="5.8181589"
     inkscape:cy="11.338586"
     inkscape:window-x="-13"
     inkscape:window-y="-13"
     inkscape:window-maximized="1"
     inkscape:current-layer="svg3705" />
  <metadata
     id="metadata16">
    <rdf:RDF>
      <cc:Work
         rdf:about="">
        <dc:format>image/svg+xml</dc:format>
        <dc:type
           rdf:resource="http://purl.org/dc/dcmitype/StillImage" />
        <dc:title></dc:title>
      </cc:Work>
    </rdf:RDF>
  </metadata>
  <path
     style="fill:#ffffff;stroke-width:0.45005256"
     d="m 263.38693,433.0329 c -7.73351,-0.88682 -15.96794,-3.30685 -23.03819,-6.77076 -19.15674,-9.38543 -32.76487,-25.97115 -38.53789,-46.97037 l -1.61906,-5.8893 -0.17467,-53.35657 c -0.15284,-46.68784 -0.0557,-53.99169 0.77728,-58.43805 5.674,-30.28721 29.53553,-53.60205 59.68542,-58.31793 3.26387,-0.51052 19.00389,-0.65043 57.30003,-0.50934 l 52.80002,0.19454 5.88791,1.61921 c 12.2445,3.36735 22.22586,8.8974 31.17616,17.27278 13.02603,12.18931 20.60288,27.34551 22.59247,45.1924 0.83146,7.45832 0.85139,93.9647 0.0234,101.84192 -1.71655,16.33195 -9.1066,31.81404 -20.73998,43.45014 -11.63338,11.6361 -27.11189,19.02788 -43.44002,20.74482 -7.01163,0.73729 -96.19044,0.68215 -102.69293,-0.0635 z m 102.69294,-22.52589 c 20.51644,-4.27013 36.86804,-20.59159 41.68244,-41.60558 1.3179,-5.75245 1.3578,-16.21159 0.0841,-22.05065 -3.6438,-16.70439 -14.40527,-30.49252 -29.46653,-37.75399 -17.26319,-8.32307 -37.09256,-7.06023 -52.92177,3.37036 -23.00608,15.15974 -31.10407,44.41028 -19.06661,68.87001 11.09554,22.54577 35.11532,34.2843 59.68838,29.16985 z M 268.21796,295.3618 c 11.79062,-2.77994 21.56012,-12.55171 24.33941,-24.34509 4.71387,-20.00238 -10.82588,-39.50769 -31.50149,-39.54024 -8.84317,-0.0139 -16.3596,3.14509 -22.7921,9.5791 -12.86135,12.86434 -12.87878,32.80751 -0.0399,45.59556 8.00001,7.96831 19.26595,11.24008 29.99404,8.71067 z m -98.31257,-93.36525 c -10.43588,-1.78524 -18.74542,-10.30542 -20.52458,-21.04484 -2.73993,-16.53878 12.49992,-31.67682 28.97706,-28.78346 13.84301,2.43082 23.04623,15.16306 20.88937,28.89951 -2.19486,13.9784 -15.30558,23.32993 -29.34185,20.92879 z"
     id="path3703"
     inkscape:connector-curvature="0" />
</svg>
